<svg width="33" height="32" viewBox="0 0 33 32" fill="none" xmlns="http://www.w3.org/2000/svg">
<path d="M11.6821 6.16016H10.2954C8.17545 6.16016 7.32211 6.96016 7.32211 8.98682V24.8268H14.6554V8.98682C14.6421 6.96016 13.7888 6.16016 11.6821 6.16016Z" fill="#2C3D37"/>
<path d="M23.0154 12.8271H21.6288C19.5088 12.8271 18.6554 13.6405 18.6554 15.6538V24.8271H25.9888V15.6538C25.9888 13.6405 25.1221 12.8271 23.0154 12.8271Z" fill="#2C3D37"/>
<path d="M4.65543 23.8398H29.3221C29.8688 23.8398 30.3221 24.2932 30.3221 24.8398C30.3221 25.3865 29.8688 25.8398 29.3221 25.8398H4.65543C4.10876 25.8398 3.65543 25.3865 3.65543 24.8265C3.65543 24.2665 4.10876 23.8398 4.65543 23.8398Z" fill="#2C3D37"/>
</svg>
