<svg width="20" height="21" viewBox="0 0 20 21" fill="none" xmlns="http://www.w3.org/2000/svg">
<path d="M14.6834 9.45817C14.3251 9.45817 14.0417 9.1665 14.0417 8.8165C14.0417 8.50817 13.7334 7.8665 13.2167 7.30817C12.7084 6.7665 12.1501 6.44984 11.6834 6.44984C11.3251 6.44984 11.0417 6.15817 11.0417 5.80817C11.0417 5.45817 11.3334 5.1665 11.6834 5.1665C12.5167 5.1665 13.3917 5.6165 14.1584 6.42484C14.8751 7.18317 15.3334 8.12484 15.3334 8.80817C15.3334 9.1665 15.0417 9.45817 14.6834 9.45817Z" fill="#F4EFEE"/>
<path d="M17.6917 9.45817C17.3334 9.45817 17.05 9.1665 17.05 8.8165C17.05 5.85817 14.6417 3.45817 11.6917 3.45817C11.3334 3.45817 11.05 3.1665 11.05 2.8165C11.05 2.4665 11.3334 2.1665 11.6834 2.1665C15.35 2.1665 18.3334 5.14984 18.3334 8.8165C18.3334 9.1665 18.0417 9.45817 17.6917 9.45817Z" fill="#F4EFEE"/>
<path d="M9.20841 12.9582L7.66675 14.4998C7.34175 14.8248 6.82508 14.8248 6.49175 14.5082C6.40008 14.4165 6.30841 14.3332 6.21675 14.2415C5.35841 13.3748 4.58341 12.4665 3.89175 11.5165C3.20841 10.5665 2.65841 9.6165 2.25841 8.67484C1.86675 7.72484 1.66675 6.8165 1.66675 5.94984C1.66675 5.38317 1.76675 4.8415 1.96675 4.3415C2.16675 3.83317 2.48341 3.3665 2.92508 2.94984C3.45841 2.42484 4.04175 2.1665 4.65841 2.1665C4.89175 2.1665 5.12508 2.2165 5.33341 2.3165C5.55008 2.4165 5.74175 2.5665 5.89175 2.78317L7.82508 5.50817C7.97508 5.7165 8.08341 5.90817 8.15841 6.0915C8.23341 6.2665 8.27508 6.4415 8.27508 6.59984C8.27508 6.79984 8.21675 6.99984 8.10008 7.1915C7.99175 7.38317 7.83341 7.58317 7.63341 7.78317L7.00008 8.4415C6.90841 8.53317 6.86675 8.6415 6.86675 8.77484C6.86675 8.8415 6.87508 8.89984 6.89175 8.9665C6.91675 9.03317 6.94175 9.08317 6.95842 9.13317C7.10842 9.40817 7.36675 9.7665 7.73341 10.1998C8.10841 10.6332 8.50841 11.0748 8.94175 11.5165C9.02508 11.5998 9.11675 11.6832 9.20008 11.7665C9.53341 12.0915 9.54175 12.6248 9.20841 12.9582Z" fill="#F4EFEE"/>
<path d="M18.3083 15.7752C18.3083 16.0085 18.2667 16.2502 18.1833 16.4835C18.1583 16.5502 18.1333 16.6169 18.1 16.6835C17.9583 16.9835 17.775 17.2669 17.5333 17.5335C17.125 17.9835 16.675 18.3085 16.1667 18.5169C16.1583 18.5169 16.15 18.5252 16.1417 18.5252C15.65 18.7252 15.1167 18.8335 14.5417 18.8335C13.6917 18.8335 12.7833 18.6335 11.825 18.2252C10.8667 17.8169 9.90833 17.2669 8.95833 16.5752C8.63333 16.3335 8.30833 16.0919 8 15.8335L10.725 13.1085C10.9583 13.2835 11.1667 13.4169 11.3417 13.5085C11.3833 13.5252 11.4333 13.5502 11.4917 13.5752C11.5583 13.6002 11.625 13.6085 11.7 13.6085C11.8417 13.6085 11.95 13.5585 12.0417 13.4669L12.675 12.8419C12.8833 12.6335 13.0833 12.4752 13.275 12.3752C13.4667 12.2585 13.6583 12.2002 13.8667 12.2002C14.025 12.2002 14.1917 12.2335 14.375 12.3085C14.5583 12.3835 14.75 12.4919 14.9583 12.6335L17.7167 14.5919C17.9333 14.7419 18.0833 14.9169 18.175 15.1252C18.2583 15.3335 18.3083 15.5419 18.3083 15.7752Z" fill="#F4EFEE"/>
</svg>
