<svg width="16" height="16" viewBox="0 0 16 16" fill="none" xmlns="http://www.w3.org/2000/svg">
<g clip-path="url(#clip0_157_277)">
<path d="M14.6667 7.38625V7.99958C14.6659 9.4372 14.2003 10.836 13.3396 11.9875C12.4788 13.1389 11.2689 13.9812 9.89025 14.3889C8.51163 14.7965 7.03818 14.7475 5.68966 14.2493C4.34113 13.7511 3.18978 12.8303 2.40732 11.6243C1.62485 10.4183 1.2532 8.99163 1.34779 7.55713C1.44239 6.12263 1.99815 4.75714 2.9322 3.6643C3.86625 2.57146 5.12853 1.80984 6.5308 1.49301C7.93307 1.17619 9.40019 1.32114 10.7133 1.90625M14.6667 2.66625L8.00001 9.33959L6.00001 7.33959" stroke="#F4EEEE" stroke-width="1.5" stroke-linecap="round" stroke-linejoin="round"/>
</g>
<defs>
<clipPath id="clip0_157_277">
<rect width="16" height="16" fill="white"/>
</clipPath>
</defs>
</svg>
