<svg width="89" height="46" viewBox="0 0 89 46" fill="none" xmlns="http://www.w3.org/2000/svg">
<path d="M15.8311 30.4413H8.07873L7.01202 34.0771H0.0558879L8.33413 12.0519H15.756L24.0343 34.0771H16.9129L15.8311 30.4413ZM14.4038 25.6787L11.97 17.761L9.55108 25.6787H14.4038Z" fill="#BC5238"/>
<rect x="25" y="28.0771" width="6" height="6" fill="#BC5238"/>
<path d="M34.4832 12.0519H40.8383L49.1316 24.2364V12.0519H55.5469V34.0771H49.1316L40.8834 21.9828V34.0771H34.4832V12.0519Z" fill="#BC5238"/>
<rect x="59" y="28.0771" width="6" height="6" fill="#BC5238"/>
<path d="M67.0883 12.0519H87.7764V17.4906H80.8353V34.0771H74.0294V17.4906H67.0883V12.0519Z" fill="#BC5238"/>
<path d="M13.1719 43.5303L12.6274 41.9458L12.0488 43.5303H13.1719ZM12.3735 41.4136H12.9229L14.2241 45H13.6919L13.3281 43.9258H11.9097L11.5215 45H11.0234L12.3735 41.4136ZM14.666 41.4136H15.1519V44.5728H16.9683V45H14.666V41.4136ZM17.4956 41.4136H19.1094C19.4284 41.4136 19.6855 41.5039 19.8809 41.6846C20.0762 41.8636 20.1738 42.1159 20.1738 42.4414C20.1738 42.7214 20.0868 42.9655 19.9126 43.1738C19.7384 43.3805 19.4707 43.4839 19.1094 43.4839H17.9814V45H17.4956V41.4136ZM19.6831 42.4438C19.6831 42.1802 19.5854 42.0011 19.3901 41.9067C19.2827 41.8563 19.1354 41.8311 18.9482 41.8311H17.9814V43.0737H18.9482C19.1663 43.0737 19.3429 43.0273 19.478 42.9346C19.6147 42.8418 19.6831 42.6782 19.6831 42.4438ZM20.7964 41.4136H21.2871V42.8955H23.1523V41.4136H23.6431V45H23.1523V43.3228H21.2871V45H20.7964V41.4136ZM26.2383 43.5303L25.6938 41.9458L25.1152 43.5303H26.2383ZM25.4399 41.4136H25.9893L27.2905 45H26.7583L26.3945 43.9258H24.9761L24.5879 45H24.0898L25.4399 41.4136ZM28.8506 41.4136H29.4243L31.2358 44.3188V41.4136H31.6973V45H31.1528L29.3145 42.0972V45H28.8506V41.4136ZM32.5103 41.4136H35.125V41.853H32.9839V42.9419H34.9639V43.3569H32.9839V44.5728H35.1616V45H32.5103V41.4136ZM36.1064 45H35.5205L36.8047 43.1616L35.6011 41.4136H36.209L37.1245 42.7856L38.0327 41.4136H38.6113L37.4077 43.1616L38.6699 45H38.0669L37.1001 43.5254L36.1064 45ZM41.7437 41.4136V41.8408H40.5352V45H40.042V41.8408H38.8335V41.4136H41.7437ZM46.0161 41.4136V41.8408H44.8076V45H44.3145V41.8408H43.106V41.4136H46.0161ZM46.5093 41.4136H49.124V41.853H46.9829V42.9419H48.9629V43.3569H46.9829V44.5728H49.1606V45H46.5093V41.4136ZM51.3091 41.3159C51.7632 41.3159 52.1156 41.4355 52.3662 41.6748C52.6169 41.9141 52.756 42.1859 52.7837 42.4902H52.3101C52.2563 42.2591 52.1489 42.076 51.9878 41.9409C51.8283 41.8058 51.6037 41.7383 51.314 41.7383C50.9608 41.7383 50.6751 41.8628 50.457 42.1118C50.2406 42.3592 50.1323 42.7393 50.1323 43.252C50.1323 43.6719 50.23 44.0129 50.4253 44.2749C50.6222 44.5353 50.9152 44.6655 51.3042 44.6655C51.6623 44.6655 51.9349 44.528 52.1221 44.2529C52.2214 44.1081 52.2954 43.9176 52.3442 43.6816H52.8179C52.7756 44.0592 52.6356 44.3758 52.3979 44.6313C52.1131 44.939 51.729 45.0928 51.2456 45.0928C50.8289 45.0928 50.479 44.9666 50.1958 44.7144C49.8231 44.3807 49.6367 43.8656 49.6367 43.1689C49.6367 42.64 49.7767 42.2062 50.0566 41.8677C50.3594 41.4998 50.7769 41.3159 51.3091 41.3159ZM53.4233 41.4136H53.9141V42.8955H55.7793V41.4136H56.27V45H55.7793V43.3228H53.9141V45H53.4233V41.4136ZM57.0244 41.4136H57.5981L59.4097 44.3188V41.4136H59.8711V45H59.3267L57.4883 42.0972V45H57.0244V41.4136ZM62.1855 41.3159C62.8187 41.3159 63.2874 41.5194 63.5918 41.9263C63.8294 42.2437 63.9482 42.6497 63.9482 43.1445C63.9482 43.68 63.8123 44.1252 63.5405 44.48C63.2215 44.8966 62.7666 45.105 62.1758 45.105C61.624 45.105 61.1903 44.9227 60.8745 44.5581C60.5929 44.2065 60.4521 43.7622 60.4521 43.2251C60.4521 42.7401 60.5726 42.325 60.8135 41.98C61.1227 41.5373 61.5801 41.3159 62.1855 41.3159ZM62.2344 44.6704C62.6624 44.6704 62.9717 44.5174 63.1621 44.2114C63.3542 43.9038 63.4502 43.5506 63.4502 43.1519C63.4502 42.7303 63.3395 42.391 63.1182 42.1338C62.8984 41.8766 62.5973 41.748 62.2148 41.748C61.8438 41.748 61.541 41.8758 61.3066 42.1313C61.0723 42.3853 60.9551 42.7604 60.9551 43.2568C60.9551 43.654 61.0552 43.9893 61.2554 44.2627C61.4572 44.5345 61.7835 44.6704 62.2344 44.6704ZM64.5293 41.4136H65.0151V44.5728H66.8315V45H64.5293V41.4136ZM68.8604 41.3159C69.4935 41.3159 69.9622 41.5194 70.2666 41.9263C70.5042 42.2437 70.623 42.6497 70.623 43.1445C70.623 43.68 70.4871 44.1252 70.2153 44.48C69.8963 44.8966 69.4414 45.105 68.8506 45.105C68.2988 45.105 67.8651 44.9227 67.5493 44.5581C67.2677 44.2065 67.127 43.7622 67.127 43.2251C67.127 42.7401 67.2474 42.325 67.4883 41.98C67.7975 41.5373 68.2549 41.3159 68.8604 41.3159ZM68.9092 44.6704C69.3372 44.6704 69.6465 44.5174 69.8369 44.2114C70.029 43.9038 70.125 43.5506 70.125 43.1519C70.125 42.7303 70.0143 42.391 69.793 42.1338C69.5732 41.8766 69.2721 41.748 68.8896 41.748C68.5186 41.748 68.2158 41.8758 67.9814 42.1313C67.7471 42.3853 67.6299 42.7604 67.6299 43.2568C67.6299 43.654 67.73 43.9893 67.9302 44.2627C68.132 44.5345 68.4583 44.6704 68.9092 44.6704ZM72.7544 41.3208C73.0913 41.3208 73.3826 41.3859 73.6284 41.5161C73.9849 41.7033 74.203 42.0312 74.2827 42.5H73.8018C73.7432 42.238 73.6219 42.0475 73.438 41.9287C73.2541 41.8083 73.0221 41.748 72.7422 41.748C72.4102 41.748 72.1302 41.8726 71.9023 42.1216C71.6761 42.3706 71.563 42.7417 71.563 43.2349C71.563 43.6613 71.6566 44.0088 71.8438 44.2773C72.0309 44.5443 72.3361 44.6777 72.7593 44.6777C73.0832 44.6777 73.3509 44.5841 73.5625 44.397C73.7757 44.2082 73.8848 43.9038 73.8896 43.4839H72.7666V43.0811H74.3413V45H74.0288L73.9116 44.5386C73.7472 44.7192 73.6016 44.8446 73.4746 44.9146C73.2614 45.035 72.9904 45.0952 72.6616 45.0952C72.2368 45.0952 71.8714 44.9577 71.5654 44.6826C71.2318 44.3376 71.0649 43.8639 71.0649 43.2617C71.0649 42.6611 71.2277 42.1834 71.5532 41.8286C71.8625 41.4901 72.2629 41.3208 72.7544 41.3208ZM74.8174 41.4136H75.3838L76.4141 43.1372L77.4443 41.4136H78.0132L76.6582 43.5547V45H76.1724V43.5547L74.8174 41.4136Z" fill="#BC5238"/>
</svg>
