<svg width="134" height="51" viewBox="0 0 134 51" fill="none" xmlns="http://www.w3.org/2000/svg">
<path d="M30.0186 47.3798L30.3441 27.0781H35.7349L37.5768 37.5202L39.6252 27.0781H44.7938L45.1193 47.3798H41.6815L41.2925 34.2176L39.2362 47.3798H36.0763L33.8453 34.09L33.5198 47.3798H30.0186Z" fill="#E4E4E4"/>
<path d="M45.9375 47.3798V27.0781H52.7813C54.5756 27.0781 55.9332 27.5887 56.8383 28.6097C57.7513 29.6308 58.2039 31.1066 58.2039 33.045C58.2039 34.0421 58.0927 34.9037 57.8704 35.6296C57.6481 36.3555 57.3623 36.9298 57.005 37.3526C56.6477 37.7754 56.1952 38.1184 55.6474 38.3657C55.0916 38.621 54.5438 38.7885 53.996 38.8683C53.4482 38.9481 52.813 38.9879 52.0905 38.9879H50.8917V47.3798H45.9375ZM50.8837 35.5498H51.5745C52.2414 35.5498 52.6701 35.3504 52.8686 34.9435C53.0671 34.5367 53.1623 33.8666 53.1623 32.9253C53.1623 32.6541 53.1544 32.4308 53.1385 32.2393C53.1226 32.0479 53.0829 31.8405 53.0194 31.6171C52.9559 31.3858 52.8686 31.2023 52.7574 31.0587C52.6463 30.9151 52.4796 30.7955 52.2731 30.6997C52.0667 30.604 51.8126 30.5561 51.5268 30.5561H50.8837V35.5498Z" fill="#E4E4E4"/>
<path d="M59.0771 47.3799V27.0781H68.533V30.4126H64.0234V34.9435H67.3897V38.3976H64.0234V44.0694H68.5806V47.3878H59.0771V47.3799Z" fill="#E4E4E4"/>
<path d="M72.1136 47.3799V30.4046H69.1602V27.0781H79.9974V30.4126H77.0598V47.3878H72.1136V47.3799Z" fill="#E4E4E4"/>
<path d="M81.1807 47.3798V27.0781H86.119V47.3798H81.1807Z" fill="#E4E4E4"/>
<path d="M90.2474 47.3799V30.4046H87.2939V27.0781H98.1312V30.4126H95.1936V47.3878H90.2474V47.3799Z" fill="#E4E4E4"/>
<path d="M99.3135 47.3798V27.0781H104.252V47.3798H99.3135Z" fill="#E4E4E4"/>
<path d="M118.479 47.3798V27.0781H121.989L125.681 35.7732V27.0781H129.761V47.3798H126.387L122.719 37.8313V47.3798H118.479Z" fill="#E4E4E4"/>
<path d="M16.2678 39.9211C15.8549 44.4042 14.2432 47.7067 10.1148 47.7067C5.25586 47.7067 3.85059 43.0162 3.85059 37.2328C3.85059 31.4494 5.35907 26.7349 10.1148 26.7589C14.0765 26.7828 15.7835 30.0135 16.244 34.4408H11.2104C11.0199 31.9759 10.5911 30.2608 10.0909 30.2608C9.4161 30.2608 8.86828 33.3958 8.86828 37.2567C8.86828 41.1177 9.4161 44.2527 10.0909 44.2527C10.5991 44.2527 11.0357 42.4658 11.2183 39.9211H16.2678Z" fill="#E4E4E4"/>
<path d="M23.2778 26.7589C18.5222 26.7349 17.0137 31.4494 17.0137 37.2328C17.0137 43.0162 18.4189 47.7067 23.2778 47.7067C28.1923 47.7067 29.542 43.0162 29.542 37.2328C29.542 31.4494 28.0335 26.7828 23.2778 26.7589ZM23.254 44.2606C22.5792 44.2606 22.0314 41.1256 22.0314 37.2647C22.0314 33.4038 22.5792 30.2688 23.254 30.2688C23.9289 30.2688 24.4767 33.4038 24.4767 37.2647C24.4767 41.1256 23.9289 44.2606 23.254 44.2606Z" fill="#E4E4E4"/>
<path d="M111.429 26.7589C106.674 26.7349 105.165 31.4494 105.165 37.2328C105.165 43.0162 106.57 47.7067 111.429 47.7067C116.344 47.7067 117.693 43.0162 117.693 37.2328C117.693 31.4494 116.185 26.7828 111.429 26.7589ZM111.405 44.2606C110.731 44.2606 110.183 41.1256 110.183 37.2647C110.183 33.4038 110.731 30.2688 111.405 30.2688C112.08 30.2688 112.628 33.4038 112.628 37.2647C112.628 41.1256 112.08 44.2606 111.405 44.2606Z" fill="#E4E4E4"/>
<path d="M17.9902 24.6772V4.37549H27.0253V7.70992H22.9444V11.7384H26.6283V17.2266H22.9444V24.6852H17.9902V24.6772Z" fill="#E4E4E4"/>
<path d="M27.7314 24.6772V4.37549H32.6697V24.6772H27.7314Z" fill="#E4E4E4"/>
<path d="M34.0918 24.6772V4.37549H37.601L41.2928 13.0705V4.37549H45.3737V24.6772H41.9994L38.3314 15.1286V24.6772H34.0918Z" fill="#E4E4E4"/>
<path d="M54.0036 4.46307C53.5352 4.41521 53.0271 4.39128 52.4793 4.3833C52.3681 4.3833 52.249 4.3833 52.1379 4.3833H46.8105V24.685H52.1458C52.2649 24.685 53.4717 24.701 54.1704 24.5813C58.0527 23.8714 59.1642 19.7791 59.1642 14.5302C59.1642 9.21743 57.8939 5.11719 54.0036 4.46307ZM54.083 15.5911C54.0036 18.4868 53.6146 20.6566 53.1065 21.1751C53.035 21.2549 52.9556 21.2868 52.8762 21.2948C52.7413 21.3027 51.7568 21.3027 51.7568 21.3027V7.80548H52.2173C52.4316 7.80548 52.8445 7.81345 52.8762 7.81345C52.9239 7.81345 52.9715 7.82941 53.0191 7.85334C53.567 8.18838 54.0036 10.4379 54.083 13.5091C54.091 13.8521 54.091 15.2561 54.083 15.5911Z" fill="#E4E4E4"/>
<path d="M68.2309 24.6772V16.046L64.5391 4.37549H69.2074L70.8032 9.81587L72.1291 4.37549H76.599L72.9707 16.046V24.6772H68.2309Z" fill="#E4E4E4"/>
<path d="M95.0662 24.9963C93.8991 24.9963 92.9147 24.8607 92.1128 24.5974C91.3188 24.3342 90.6837 23.9194 90.2153 23.361C89.7468 22.8026 89.4054 22.1325 89.207 21.3587C89.0085 20.585 88.9053 19.6437 88.9053 18.5428V4.37549H93.8277V19.3804C93.8277 19.6596 93.8436 19.891 93.8674 20.0904C93.8912 20.2898 93.9388 20.4972 94.0103 20.7365C94.0817 20.9679 94.2088 21.1513 94.3914 21.279C94.5661 21.4066 94.7963 21.4704 95.0583 21.4704C95.3282 21.4704 95.5505 21.4066 95.7252 21.279C95.9078 21.1513 96.0269 20.9758 96.1063 20.7365C96.1777 20.5052 96.2254 20.2898 96.2492 20.0904C96.273 19.891 96.281 19.6596 96.281 19.3804V4.37549H101.219V18.5428C101.219 19.6437 101.116 20.585 100.918 21.3587C100.711 22.1325 100.378 22.8026 99.9093 23.361C99.4408 23.9194 98.8057 24.3342 98.0117 24.5974C97.2019 24.8687 96.2254 24.9963 95.0662 24.9963Z" fill="#E4E4E4"/>
<path d="M102.378 24.6772V4.37549H108.412C109.269 4.37549 110.032 4.42335 110.698 4.5111C111.357 4.59885 111.993 4.76637 112.596 4.9977C113.199 5.23702 113.699 5.54812 114.081 5.94698C114.47 6.34583 114.771 6.85637 115.002 7.48656C115.232 8.11675 115.343 8.8666 115.343 9.72015C115.343 11.0842 115.176 12.1691 114.835 12.9748C114.493 13.7805 113.842 14.4426 112.874 14.9451L115.629 24.6692H110.452L108.356 15.695H107.332V24.6692H102.378V24.6772ZM107.332 12.9748H108.626C109.436 12.9748 110 12.7435 110.317 12.2728C110.627 11.8022 110.786 11.1321 110.786 10.2706C110.786 9.44095 110.635 8.7948 110.341 8.34011C110.047 7.88541 109.555 7.66206 108.872 7.66206H107.34V12.9748H107.332Z" fill="#E4E4E4"/>
<path d="M81.7359 4.05624C76.9802 4.03231 75.4717 8.74678 75.4717 14.5302C75.4717 20.3136 76.877 25.0041 81.7359 25.0041C86.6503 25.0041 88 20.3136 88 14.5302C88 8.74678 86.4915 4.08815 81.7359 4.05624ZM81.7041 21.558C81.0292 21.558 80.4814 18.423 80.4814 14.5621C80.4814 10.7012 81.0292 7.56617 81.7041 7.56617C82.3789 7.56617 82.9268 10.7012 82.9268 14.5621C82.9268 18.423 82.3789 21.558 81.7041 21.558Z" fill="#E4E4E4"/>
</svg>
