<svg width="33" height="32" viewBox="0 0 33 32" fill="none" xmlns="http://www.w3.org/2000/svg">
<path d="M30.2821 3.10634C29.3221 2.01301 27.8954 1.33301 26.3221 1.33301C24.8288 1.33301 23.4688 1.94634 22.4954 2.94634C21.9354 3.51967 21.5088 4.21301 21.2554 4.98634C21.0821 5.51967 20.9888 6.07967 20.9888 6.66634C20.9888 7.66634 21.2688 8.61301 21.7621 9.41301C22.0288 9.86634 22.3754 10.2797 22.7754 10.6263C23.7088 11.4797 24.9488 11.9997 26.3221 11.9997C26.9088 11.9997 27.4688 11.9063 27.9888 11.7197C29.2154 11.333 30.2421 10.493 30.8821 9.41301C31.1621 8.95967 31.3754 8.43967 31.4954 7.90634C31.6021 7.50634 31.6554 7.09301 31.6554 6.66634C31.6554 5.30634 31.1354 4.05301 30.2821 3.10634ZM28.3088 7.63967H27.3221V8.67968C27.3221 9.22634 26.8688 9.67968 26.3221 9.67968C25.7754 9.67968 25.3221 9.22634 25.3221 8.67968V7.63967H24.3354C23.7888 7.63967 23.3354 7.18634 23.3354 6.63967C23.3354 6.09301 23.7888 5.63967 24.3354 5.63967H25.3221V4.69301C25.3221 4.14634 25.7754 3.69301 26.3221 3.69301C26.8688 3.69301 27.3221 4.14634 27.3221 4.69301V5.63967H28.3088C28.8554 5.63967 29.3088 6.09301 29.3088 6.63967C29.3088 7.18634 28.8688 7.63967 28.3088 7.63967Z" fill="#2C3D37"/>
<path d="M30.3221 16.0003C30.3221 14.2537 29.9888 12.5737 29.3621 11.0403C28.9488 11.3337 28.4821 11.5603 27.9888 11.7203C27.8421 11.7737 27.6954 11.8137 27.5354 11.8537C28.0421 13.1337 28.3221 14.5337 28.3221 16.0003C28.3221 19.0937 27.0688 21.907 25.0421 23.9603C24.6554 23.467 24.1621 23.0137 23.5754 22.627C19.9621 20.2003 14.0421 20.2003 10.4021 22.627C9.81543 23.0137 9.33543 23.467 8.93543 23.9603C6.90876 21.907 5.65543 19.0937 5.65543 16.0003C5.65543 9.74699 10.7354 4.66699 16.9888 4.66699C18.4421 4.66699 19.8421 4.94699 21.1221 5.45366C21.1621 5.29366 21.2021 5.14699 21.2554 4.98699C21.4154 4.49366 21.6421 4.04033 21.9488 3.62699C20.4154 3.00033 18.7354 2.66699 16.9888 2.66699C9.64209 2.66699 3.65543 8.65366 3.65543 16.0003C3.65543 19.867 5.32209 23.347 7.96209 25.787C7.96209 25.8003 7.96209 25.8003 7.94876 25.8137C8.08209 25.947 8.24209 26.0537 8.37543 26.1737C8.45543 26.2403 8.52209 26.307 8.60209 26.3603C8.84209 26.5603 9.10876 26.747 9.36209 26.9337C9.45543 27.0003 9.53543 27.0537 9.62876 27.1203C9.88209 27.2937 10.1488 27.4537 10.4288 27.6003C10.5221 27.6537 10.6288 27.7203 10.7221 27.7737C10.9888 27.9203 11.2688 28.0537 11.5621 28.1737C11.6688 28.227 11.7754 28.2803 11.8821 28.3203C12.1754 28.4403 12.4688 28.547 12.7621 28.6403C12.8688 28.6803 12.9754 28.7203 13.0821 28.747C13.4021 28.8403 13.7221 28.9203 14.0421 29.0003C14.1354 29.027 14.2288 29.0537 14.3354 29.067C14.7088 29.147 15.0821 29.2003 15.4688 29.2403C15.5221 29.2403 15.5754 29.2537 15.6288 29.267C16.0821 29.307 16.5354 29.3337 16.9888 29.3337C17.4421 29.3337 17.8954 29.307 18.3354 29.267C18.3888 29.267 18.4421 29.2537 18.4954 29.2403C18.8821 29.2003 19.2554 29.147 19.6288 29.067C19.7221 29.0537 19.8154 29.0137 19.9221 29.0003C20.2421 28.9203 20.5754 28.8537 20.8821 28.747C20.9888 28.707 21.0954 28.667 21.2021 28.6403C21.4954 28.5337 21.8021 28.4403 22.0821 28.3203C22.1888 28.2803 22.2954 28.227 22.4021 28.1737C22.6821 28.0537 22.9621 27.9203 23.2421 27.7737C23.3488 27.7203 23.4421 27.6537 23.5354 27.6003C23.8021 27.4403 24.0688 27.2937 24.3354 27.1203C24.4288 27.067 24.5088 27.0003 24.6021 26.9337C24.8688 26.747 25.1221 26.5603 25.3621 26.3603C25.4421 26.2937 25.5088 26.227 25.5888 26.1737C25.7354 26.0537 25.8821 25.9337 26.0154 25.8137C26.0154 25.8003 26.0154 25.8003 26.0021 25.787C28.6554 23.347 30.3221 19.867 30.3221 16.0003Z" fill="#2C3D37"/>
<path d="M16.9888 9.24023C14.2288 9.24023 11.9888 11.4802 11.9888 14.2402C11.9888 16.9469 14.1088 19.1469 16.9221 19.2269C16.9621 19.2269 17.0154 19.2269 17.0421 19.2269C17.0688 19.2269 17.1088 19.2269 17.1354 19.2269C17.1488 19.2269 17.1621 19.2269 17.1621 19.2269C19.8554 19.1336 21.9754 16.9469 21.9888 14.2402C21.9888 11.4802 19.7488 9.24023 16.9888 9.24023Z" fill="#2C3D37"/>
</svg>
