<svg width="33" height="32" viewBox="0 0 33 32" fill="none" xmlns="http://www.w3.org/2000/svg">
<path d="M7.65545 20C6.40211 20 5.24211 20.44 4.32211 21.1733C3.09545 22.1467 2.32211 23.6533 2.32211 25.3333C2.32211 26.3333 2.60211 27.28 3.09545 28.08C4.01545 29.6267 5.70878 30.6667 7.65545 30.6667C9.00211 30.6667 10.2288 30.1733 11.1621 29.3333C11.5754 28.9867 11.9354 28.56 12.2154 28.08C12.7088 27.28 12.9888 26.3333 12.9888 25.3333C12.9888 22.3867 10.6021 20 7.65545 20ZM10.4154 24.76L7.57545 27.3867C7.38878 27.56 7.13545 27.6533 6.89545 27.6533C6.64211 27.6533 6.38878 27.56 6.18878 27.36L4.86878 26.04C4.48211 25.6533 4.48211 25.0133 4.86878 24.6267C5.25545 24.24 5.89545 24.24 6.28211 24.6267L6.92211 25.2667L9.05545 23.2933C9.45545 22.92 10.0954 22.9467 10.4688 23.3467C10.8421 23.7467 10.8154 24.3867 10.4154 24.76Z" fill="#2C3D37"/>
<path d="M20.7888 5.26673V10.3334H18.7888V5.26673C18.7888 4.90673 18.4688 4.7334 18.2554 4.7334C18.1888 4.7334 18.1221 4.74673 18.0554 4.7734L7.48211 8.76007C6.77545 9.02673 6.32211 9.6934 6.32211 10.4534V11.3467C5.10878 12.2534 4.32211 13.7067 4.32211 15.3467V10.4534C4.32211 8.86673 5.29545 7.4534 6.77545 6.8934L17.3621 2.8934C17.6554 2.78673 17.9621 2.7334 18.2554 2.7334C19.5888 2.7334 20.7888 3.8134 20.7888 5.26673Z" fill="#2C3D37"/>
<path d="M29.6555 19.3337V20.667C29.6555 21.027 29.3755 21.3203 29.0021 21.3337H27.0554C26.3488 21.3337 25.7088 20.8137 25.6554 20.1203C25.6154 19.707 25.7755 19.3203 26.0421 19.0537C26.2821 18.8003 26.6154 18.667 26.9754 18.667H28.9888C29.3755 18.6803 29.6555 18.9737 29.6555 19.3337Z" fill="#2C3D37"/>
<path d="M26.9621 17.2663H28.3221C29.0554 17.2663 29.6554 16.6663 29.6554 15.933V15.3463C29.6554 12.5863 27.4021 10.333 24.6421 10.333H9.33545C8.20211 10.333 7.16211 10.7063 6.32211 11.3463C5.10878 12.253 4.32211 13.7063 4.32211 15.3463V17.7197C4.32211 18.2263 4.85545 18.5463 5.33545 18.3863C6.08211 18.133 6.86878 17.9997 7.65545 17.9997C11.6954 17.9997 14.9888 21.293 14.9888 25.333C14.9888 26.293 14.7354 27.3463 14.3354 28.2797C14.1221 28.7597 14.4554 29.333 14.9754 29.333H24.6421C27.4021 29.333 29.6554 27.0797 29.6554 24.3197V24.0663C29.6554 23.333 29.0554 22.733 28.3221 22.733H27.1621C25.8821 22.733 24.6554 21.9463 24.3221 20.7063C24.0554 19.693 24.3754 18.7063 25.0421 18.0663C25.5354 17.5597 26.2154 17.2663 26.9621 17.2663ZM19.6554 16.9997H12.9888C12.4421 16.9997 11.9888 16.5463 11.9888 15.9997C11.9888 15.453 12.4421 14.9997 12.9888 14.9997H19.6554C20.2021 14.9997 20.6554 15.453 20.6554 15.9997C20.6554 16.5463 20.2021 16.9997 19.6554 16.9997Z" fill="#2C3D37"/>
</svg>
